Coordinates
version=1
nRows=10
nColumns=27
inDegrees=yes

Units are S.I. units (second, meters, Newtons, ...)
If the header above contains a line with 'inDegrees', this indicates whether rotational values are in degrees (yes) or radians (no).

endheader
time	pelvis_rotation	pelvis_tilt	pelvis_list	pelvis_tx	pelvis_ty	pelvis_tz	hip_flexion_r	hip_adduction_r	hip_rotation_r	knee_angle_r	knee_rotation_r	knee_adduction_r	knee_angle_r_beta	ankle_angle_r	subtalar_angle_r	mtp_angle_r	hip_flexion_l	hip_adduction_l	hip_rotation_l	knee_angle_l	knee_rotation_l	knee_adduction_l	knee_angle_l_beta	ankle_angle_l	subtalar_angle_l	mtp_angle_l
     19.59000000	     -1.30374902	     -9.43225671	    -11.52194289	     -0.01245507	      0.86839929	     -1.18543828	     32.44308218	     -2.32926315	    -29.66491878	     31.52764443	      1.91584501	      9.34110018	      0.55026120	      1.24865658	      0.85488061	      0.00000000	     40.33964811	    -27.16201943	     -9.66672979	     38.62760709	      2.02918608	     -8.33861705	      0.67417893	      5.24129547	      7.75343502	      0.00000000
     19.59500000	     -1.21656623	     -9.31534603	    -11.45080692	     -0.01221195	      0.86841884	     -1.18565772	     32.27472781	     -2.46214164	    -29.65247690	     31.54258280	      2.00975579	      9.35008292	      0.55052192	      1.23954147	      0.75529619	      0.00000000	     40.18273947	    -27.03120031	     -9.69225204	     38.59436541	      1.96558993	     -8.32248143	      0.67359875	      5.24406284	      7.80239254	      0.00000000
     19.60000000	     -2.15779736	    -10.66670276	    -10.83113596	     -0.01561468	      0.86698700	     -1.18623054	     34.75418497	     -2.89570480	    -27.95604586	     32.66351268	      1.91979937	      8.68912184	      0.57008584	      1.54937635	      0.90687790	      0.00000000	     41.64572828	    -26.69649047	     -9.86709932	     38.97663883	      2.04544469	     -7.41530780	      0.68027068	      5.24175854	      8.05349101	      0.00000000
     19.60500000	     -1.10340878	     -9.28234667	    -11.56570241	     -0.01191838	      0.86831589	     -1.18572273	     32.18357527	     -2.42531970	    -29.80421160	     31.55313866	      2.04183732	      9.35360259	      0.55070616	      1.23557357	      0.71548981	      0.00000000	     40.26974994	    -27.08629208	     -9.46450260	     38.71898810	      1.99084337	     -8.32313111	      0.67577383	      5.31983692	      7.79516310	      0.00000000
     19.61000000	     -1.28139707	     -9.15510900	    -11.35599115	     -0.01178028	      0.86829019	     -1.18594532	     32.17110810	     -2.55299886	    -29.47578764	     31.66265028	      2.04270098	      9.35201639	      0.55261750	      1.26956980	      0.69253091	      0.00000000	     39.93948912	    -26.99856798	     -9.90000168	     38.63273338	      1.94107114	     -8.35484058	      0.67426840	      5.30605800	      7.80227720	      0.00000000
     19.61500000	     -1.09436129	     -9.26089317	    -11.61527390	     -0.01165580	      0.86823352	     -1.18584161	     32.15237229	     -2.40511912	    -29.81476137	     31.57713243	      2.06529544	      9.35608752	      0.55112493	      1.22845475	      0.67437085	      0.00000000	     40.28779868	    -27.12657820	     -9.40668568	     38.78756636	      1.99121502	     -8.31986140	      0.67697074	      5.36572071	      7.82377440	      0.00000000
     19.62000000	     -1.16495109	     -9.21396589	    -11.57270219	     -0.01154233	      0.86814746	     -1.18592972	     32.16401472	     -2.41941480	    -29.70455292	     31.65006554	      2.04783476	      9.36029751	      0.55239785	      1.26294599	      0.66487868	      0.00000000	     40.20228684	    -27.13912185	     -9.53058131	     38.81643554	      1.98962240	     -8.33184294	      0.67747460	      5.40490304	      7.81440099	      0.00000000
     19.62500000	     -1.28564491	     -9.13123119	    -11.55063953	     -0.01136715	      0.86810947	     -1.18597050	     32.12201731	     -2.37372366	    -29.52800887	     31.65508100	      2.05467063	      9.35525403	      0.55248539	      1.24444897	      0.60748502	      0.00000000	     40.05826545	    -27.20831781	     -9.74533037	     38.82983249	      1.96585777	     -8.36381292	      0.67770843	      5.43967588	      7.87409048	      0.00000000
     19.63000000	     -1.44708850	     -9.05645278	    -11.43222025	     -0.01126905	      0.86803527	     -1.18604066	     32.17439349	     -2.40121575	    -29.34822147	     31.77137135	      1.95315360	      9.35053718	      0.55451504	      1.30329992	      0.69064978	      0.00000000	     39.85665518	    -27.22031750	    -10.02646005	     38.80686367	      1.99220088	     -8.40242706	      0.67730754	      5.44103127	      7.80624976	      0.00000000
     19.63500000	     -1.25927361	     -9.07893922	    -11.62029181	     -0.01107253	      0.86802097	     -1.18605215	     32.05870030	     -2.32023557	    -29.60350320	     31.67823266	      2.02548475	      9.36020128	      0.55288946	      1.26438498	      0.60037832	      0.00000000	     40.06070557	    -27.27056879	     -9.63759754	     38.92213607	      1.99100986	     -8.36419164	      0.67931943	      5.50488240	      7.86070880	      0.00000000
